<?xml version="1.0" encoding="iso-8859-1"?>
<!-- Generator: Adobe Illustrator 19.0.0, SVG Export Plug-In . SVG Version: 6.00 Build 0)  -->
<svg version="1.1" id="Layer_1" xmlns="http://www.w3.org/2000/svg" xmlns:xlink="http://www.w3.org/1999/xlink" x="0px" y="0px"
	 viewBox="0 0 512 512" style="enable-background:new 0 0 512 512;" xml:space="preserve">
<g>
	<g>
		<path d="M503.467,149.333h-34.133V115.2h34.133c5.12,0,8.533-3.413,8.533-8.533s-3.413-8.533-8.533-8.533H8.533
			c-5.12,0-8.533,3.413-8.533,8.533s3.413,8.533,8.533,8.533h34.133v34.133H8.533c-5.12,0-8.533,3.413-8.533,8.533V192
			c0,5.12,3.413,8.533,8.533,8.533h8.533v204.8c0,5.12,3.413,8.533,8.533,8.533h85.333c5.12,0,8.533-3.413,8.533-8.533
			c0-75.093,61.44-136.533,136.533-136.533s136.533,61.44,136.533,136.533c0,5.12,3.413,8.533,8.533,8.533H486.4
			c5.12,0,8.533-3.413,8.533-8.533v-204.8h8.533c5.12,0,8.533-3.413,8.533-8.533v-34.133
			C512,152.747,508.587,149.333,503.467,149.333z M418.133,115.2h34.133v34.133h-34.133V115.2z M366.933,115.2h34.133v34.133
			h-34.133V115.2z M315.733,115.2h34.133v34.133h-34.133V115.2z M264.533,115.2h34.133v34.133h-34.133V115.2z M213.333,115.2h34.133
			v34.133h-34.133V115.2z M162.133,115.2h34.133v34.133h-34.133V115.2z M110.933,115.2h34.133v34.133h-34.133V115.2z M59.733,115.2
			h34.133v34.133H59.733V115.2z M51.2,234.667c0-5.12,3.413-8.533,8.533-8.533h34.133c5.12,0,8.533,3.413,8.533,8.533
			s-3.413,8.533-8.533,8.533H59.733C54.613,243.2,51.2,239.787,51.2,234.667z M119.467,285.867H85.333
			c-5.12,0-8.533-3.413-8.533-8.533c0-5.12,3.413-8.533,8.533-8.533h34.133c5.12,0,8.533,3.413,8.533,8.533
			C128,282.453,124.587,285.867,119.467,285.867z M426.667,285.867h-34.133c-5.12,0-8.533-3.413-8.533-8.533
			c0-5.12,3.413-8.533,8.533-8.533h34.133c5.12,0,8.533,3.413,8.533,8.533C435.2,282.453,431.787,285.867,426.667,285.867z
			 M452.267,243.2h-34.133c-5.12,0-8.533-3.413-8.533-8.533s3.413-8.533,8.533-8.533h34.133c5.12,0,8.533,3.413,8.533,8.533
			S457.387,243.2,452.267,243.2z M494.933,183.467H486.4H25.6h-8.533V166.4h477.867V183.467z"/>
	</g>
</g>
<g>
</g>
<g>
</g>
<g>
</g>
<g>
</g>
<g>
</g>
<g>
</g>
<g>
</g>
<g>
</g>
<g>
</g>
<g>
</g>
<g>
</g>
<g>
</g>
<g>
</g>
<g>
</g>
<g>
</g>
</svg>
